<svg width="16" height="16" viewBox="0 0 16 16" fill="none" xmlns="http://www.w3.org/2000/svg">
<path d="M9.46001 6.53999C8.87659 5.95675 8.08541 5.6291 7.26045 5.6291C6.4355 5.6291 5.64432 5.95675 5.0609 6.53999L1.94979 9.6511C1.65264 9.93809 1.41563 10.2814 1.25258 10.661C1.08953 11.0405 1.00371 11.4488 1.00012 11.8619C0.996528 12.2749 1.07524 12.6846 1.23167 13.067C1.3881 13.4493 1.61911 13.7967 1.91122 14.0888C2.20333 14.3809 2.5507 14.6119 2.93304 14.7683C3.31538 14.9248 3.72505 15.0035 4.13814 14.9999C4.55124 14.9963 4.95948 14.9105 5.33904 14.7474C5.71861 14.5844 6.06191 14.3474 6.3489 14.0502L7.20601 13.1939M6.61645 9.38355C7.19987 9.96679 7.99105 10.2944 8.81601 10.2944C9.64096 10.2944 10.4321 9.96679 11.0156 9.38355L14.1267 6.27244C14.6934 5.68567 15.007 4.8998 14.9999 4.08408C14.9928 3.26835 14.6656 2.48805 14.0888 1.91122C13.512 1.3344 12.7316 1.00721 11.9159 1.00012C11.1002 0.993029 10.3143 1.30661 9.72756 1.87333L8.87201 2.72888" stroke="#333333" stroke-linecap="round" stroke-linejoin="round"/>
</svg>
