<svg width="24" height="24" viewBox="0 0 24 24" fill="none" xmlns="http://www.w3.org/2000/svg">
<path d="M14.9387 8.85714C14.9387 9.6149 14.6291 10.3416 14.078 10.8774C13.5269 11.4133 12.7794 11.7143 12 11.7143C11.2206 11.7143 10.4731 11.4133 9.92195 10.8774C9.37082 10.3416 9.0612 9.6149 9.0612 8.85714C9.0612 8.09938 9.37082 7.37266 9.92195 6.83684C10.4731 6.30102 11.2206 6 12 6C12.7794 6 13.5269 6.30102 14.078 6.83684C14.6291 7.37266 14.9387 8.09938 14.9387 8.85714V8.85714ZM12 13.8571C10.636 13.8571 9.3279 14.3839 8.36342 15.3216C7.39895 16.2593 6.85712 17.5311 6.85712 18.8571H17.1428C17.1428 17.5311 16.601 16.2593 15.6365 15.3216C14.672 14.3839 13.3639 13.8571 12 13.8571V13.8571Z" stroke="#96999C" stroke-linecap="round" stroke-linejoin="round"/>
<rect x="0.5" y="0.5" width="23" height="23" rx="11.5" stroke="#96999C" stroke-dasharray="2 2"/>
</svg>
